<svg width="20" height="20" viewBox="0 0 20 20" fill="none" xmlns="http://www.w3.org/2000/svg">
<path fill-rule="evenodd" clip-rule="evenodd" d="M9.19973 13.8148C9.33256 13.9386 9.50699 14 9.68159 14C9.85619 14 10.0306 13.9386 10.1643 13.8139L13.8003 10.4462C14.0666 10.1995 14.0666 9.79958 13.8003 9.55292L10.1643 6.185C9.89797 5.93833 9.46621 5.93833 9.19973 6.185C8.93342 6.43167 8.93342 6.83173 9.19973 7.07839L11.2744 9H0.609377C0.273 9 0 9.224 0 9.5C0 9.776 0.273 10 0.609377 10H12.354L9.19973 12.9215C8.93342 13.1683 8.93342 13.5682 9.19973 13.8148Z" fill="white"/>
<path d="M10.1833 20C6.12186 20 2.53623 17.6354 1.04677 13.9752C0.911145 13.6436 1.0806 13.2671 1.42424 13.1358C1.76691 13.0063 2.15696 13.1677 2.29259 13.502C3.5786 16.6621 6.67614 18.7046 10.1833 18.7046C14.8578 18.7046 18.6614 15.0236 18.6614 10.5C18.6614 5.97637 14.8578 2.29545 10.1833 2.29545C6.67614 2.29545 3.5786 4.33793 2.29259 7.49795C2.15598 7.83225 1.76691 7.99371 1.42424 7.86419C1.0806 7.73294 0.911145 7.35642 1.04677 7.02481C2.53623 3.3646 6.12186 1 10.1833 1C15.5959 1 20 5.26207 20 10.5C20 15.7379 15.5959 20 10.1833 20Z" fill="white"/>
</svg>
