<svg width="116" height="118" viewBox="0 0 116 118" fill="none" xmlns="http://www.w3.org/2000/svg">
<path d="M113 23C114.656 23 116 24.344 116 26C116 27.656 114.656 29 113 29C111.344 29 110 27.656 110 26C110 24.344 111.344 23 113 23Z" fill="#94D4FF"/>
<path d="M113 91C114.656 91 116 92.344 116 94C116 95.656 114.656 97 113 97C111.344 97 110 95.656 110 94C110 92.344 111.344 91 113 91Z" fill="#94D4FF"/>
<path d="M100 108C102.762 108 105 110.237 105 113C105 115.762 102.762 118 100 118C97.2375 118 95 115.762 95 113C95 110.237 97.2375 108 100 108Z" fill="#3256C1"/>
<path d="M96 0C97.656 0 99 1.344 99 3C99 4.656 97.656 6 96 6C94.344 6 93 4.656 93 3C93 1.344 94.344 0 96 0Z" fill="#94D4FF"/>
<path d="M59 8C29.7281 8 6 31.5042 6 60.5C6 89.4957 29.7281 113 59 113C88.2719 113 112 89.4957 112 60.5C112 31.5042 88.2719 8 59 8Z" fill="#00A0E3"/>
<path d="M58.5 100C36.6855 100 19 82.3145 19 60.5C19 38.6855 36.6855 21 58.5 21C80.3145 21 98 38.6855 98 60.5C98 82.3145 80.3145 100 58.5 100Z" fill="white"/>
<path d="M77.4642 47.5405C79.5119 49.5936 79.5119 52.9217 77.4642 54.9748L58.9268 73.5657L51.5129 81L44.0964 73.5657L38.536 67.9874C37.5138 66.9621 37 65.6162 37 64.2702C37 62.9243 37.5138 61.5783 38.536 60.5528C40.5837 58.4997 43.9027 58.4997 45.9499 60.5528L51.5129 66.1285L70.0506 47.5405C71.0756 46.5152 72.4153 46 73.7575 46C75.0998 46 76.4394 46.5152 77.4642 47.5405Z" fill="#07CC66"/>
<path d="M19 112C20.656 112 22 113.344 22 115C22 116.656 20.656 118 19 118C17.3437 118 16 116.656 16 115C16 113.344 17.3437 112 19 112Z" fill="#94D4FF"/>
<path d="M12.5 6C16.0906 6 19 8.9094 19 12.5C19 16.0906 16.0906 19 12.5 19C8.90914 19 6 16.0906 6 12.5C6 8.9094 8.90914 6 12.5 6Z" fill="#3256C1"/>
<path d="M3 27C4.656 27 6 28.344 6 30C6 31.656 4.656 33 3 33C1.3437 33 0 31.656 0 30C0 28.344 1.3437 27 3 27Z" fill="#94D4FF"/>
<path d="M3 91C4.656 91 6 92.344 6 94C6 95.656 4.656 97 3 97C1.3437 97 0 95.656 0 94C0 92.344 1.3437 91 3 91Z" fill="#94D4FF"/>
<path d="M91 60.625C91 59.1752 89.7944 58 88.3077 58C86.821 58 85.6154 59.1752 85.6154 60.625C85.6154 75.0995 73.538 86.875 58.6923 86.875C57.2053 86.875 56 88.0505 56 89.5V99.9107C56.8901 99.968 57.7874 100 58.6923 100C59.5972 100 60.4943 99.968 61.3846 99.9107V92.0166C77.9439 90.6781 91 77.11 91 60.625Z" fill="#D0DCE7"/>
<path d="M27 60.375C27 61.8245 28.2053 63 29.6923 63C31.179 63 32.3846 61.8245 32.3846 60.375C32.3846 45.9007 44.462 34.125 59.3077 34.125C60.7944 34.125 62 32.9498 62 31.5V21.0892C61.1097 21.032 60.2126 21 59.3077 21C58.4028 21 57.5055 21.032 56.6154 21.0892V28.9834C40.0561 30.3219 27 43.89 27 60.375Z" fill="#D0DCE7"/>
</svg>
