<svg width="48" height="49" viewBox="0 0 48 49" fill="none" xmlns="http://www.w3.org/2000/svg">
<path d="M15 18H7V20H15V18Z" fill="#C6C6C6"/>
<path d="M15 41H7V43H15V41Z" fill="#C6C6C6"/>
<path d="M11 44C13.7614 44 16 37.732 16 30C16 22.268 13.7614 16 11 16C8.23858 16 6 22.268 6 30C6 37.732 8.23858 44 11 44Z" fill="#EDEDED"/>
<path d="M28 18H20V20H28V18Z" fill="#C6C6C6"/>
<path d="M28 41H20V43H28V41Z" fill="#C6C6C6"/>
<path d="M24 44C26.7614 44 29 37.732 29 30C29 22.268 26.7614 16 24 16C21.2386 16 19 22.268 19 30C19 37.732 21.2386 44 24 44Z" fill="#EDEDED"/>
<path d="M41 18H33V20H41V18Z" fill="#C6C6C6"/>
<path d="M41 41H33V43H41V41Z" fill="#C6C6C6"/>
<path d="M37 44C39.7614 44 42 37.732 42 30C42 22.268 39.7614 16 37 16C34.2386 16 32 22.268 32 30C32 37.732 34.2386 44 37 44Z" fill="#EDEDED"/>
<path d="M46 42H3V44H46V42Z" fill="#EDEDED"/>
<path d="M46 44H1V46H46V44Z" fill="#EDEDED"/>
<path d="M48 47H0V49H48V47Z" fill="#EDEDED"/>
<path d="M46 43H3V44H46V43Z" fill="#C6C6C6"/>
<path d="M46 45H1V46H46V45Z" fill="#C6C6C6"/>
<path d="M48 48H0V49H48V48Z" fill="#C6C6C6"/>
<path d="M43 15H5V18H43V15Z" fill="#EDEDED"/>
<path d="M45 13H3V16H45V13Z" fill="#C6C6C6"/>
<path d="M3 13L24.0304 0L45 13H3Z" fill="#C6C6C6"/>
<path d="M24.0609 2.88889L36.2957 10.4879H11.7652L24.0609 2.88889ZM24.0609 0L3 13H45L24.0609 0Z" fill="#C6C6C6"/>
<path d="M3 13L24.0304 0L45 13H3Z" fill="#C6C6C6"/>
<path d="M24.0609 2.88889L36.2957 10.4879H11.7652L24.0609 2.88889ZM24.0609 0L3 13H45L24.0609 0Z" fill="#EDEDED"/>
<path d="M25.7692 6.78409C25.7115 6.67045 25.5962 6.5 25.4808 6.44318C25.3654 6.32955 25.25 6.27273 25.0769 6.21591C24.9615 6.15909 24.7885 6.10227 24.6731 6.04545L24.3846 5.875C24.2692 5.81818 24.0962 5.76136 24.0385 5.70455C23.9231 5.64773 23.9231 5.53409 23.9231 5.42045C23.9231 5.30682 23.9808 5.19318 24.0385 5.13636C24.3846 4.85227 24.9615 5.02273 25.0192 5.02273C25.0769 5.02273 25.1346 5.07955 25.1923 5.07955C25.25 5.07955 25.3077 5.13636 25.3654 5.13636C25.4231 5.13636 25.4231 5.19318 25.4808 5.19318C25.5385 5.19318 25.5962 5.19318 25.6538 5.13636C25.7115 5.07955 25.7115 5.07955 25.7692 5.02273C25.7692 4.96591 25.8269 4.90909 25.8269 4.90909C25.8269 4.85227 25.8269 4.79545 25.8269 4.79545C25.8269 4.68182 25.7692 4.625 25.7115 4.56818C25.6538 4.51136 25.5385 4.45454 25.4231 4.39773C25.3077 4.34091 25.1923 4.34091 25.0769 4.34091C24.9615 4.34091 24.8462 4.34091 24.7308 4.34091V4.17045C24.7308 4.11364 24.7308 4.11364 24.6731 4.05682C24.6154 4 24.5577 4 24.5 4C24.4423 4 24.3846 4 24.3269 4.05682C24.2692 4.11364 24.2692 4.11364 24.2692 4.17045V4.34091C24.0962 4.34091 23.9808 4.39773 23.8077 4.45455C23.6923 4.51136 23.5192 4.56818 23.4038 4.68182C23.2885 4.79545 23.2308 4.90909 23.1154 5.02273C23.0577 5.13636 23 5.30682 23 5.53409C23 5.70455 23.0577 5.875 23.1154 6.04545C23.1731 6.15909 23.2885 6.27273 23.4038 6.38636C23.5192 6.5 23.6346 6.55682 23.8077 6.61364C23.9231 6.67045 24.0962 6.72727 24.2115 6.78409L24.5577 6.95455C24.6731 7.01136 24.7885 7.06818 24.9038 7.18182C25.0192 7.23864 25.0192 7.40909 25.0192 7.52273C25.0192 7.63636 24.9615 7.75 24.9038 7.86364C24.8462 7.92045 24.7308 7.97727 24.5577 8.03409C24.4423 8.09091 24.0962 8.09091 23.8654 7.92045C23.75 7.86364 23.6923 7.80682 23.6346 7.75C23.5769 7.69318 23.5192 7.63636 23.4615 7.57955C23.4038 7.52273 23.3462 7.52273 23.2885 7.52273C23.2308 7.52273 23.1731 7.52273 23.1731 7.57955C23.1154 7.57955 23.1154 7.63636 23.0577 7.69318C23 7.75 23 7.80682 23 7.80682C23 7.86364 23 7.92045 23 7.92045C23 7.97727 23.0577 8.09091 23.1154 8.20455C23.1731 8.31818 23.2885 8.375 23.4038 8.43182C23.5192 8.48864 23.6346 8.54545 23.8077 8.60227C23.9808 8.65909 24.1538 8.65909 24.3269 8.65909V8.82955C24.3269 8.88636 24.3269 8.88636 24.3846 8.94318C24.4423 9 24.5 9 24.5577 9C24.6154 9 24.6731 9 24.7308 8.94318C24.7885 8.88636 24.7885 8.88636 24.7885 8.82955V8.65909C25.1346 8.60227 25.4231 8.48864 25.6538 8.26136C25.8846 8.03409 26 7.75 26 7.35227C25.8846 7.06818 25.8269 6.89773 25.7692 6.78409Z" fill="#575756"/>
<path d="M24.8269 6.72727C24.7692 6.61364 24.6538 6.44318 24.5385 6.38636C24.4231 6.27273 24.3077 6.21591 24.1346 6.15909C24.0192 6.10227 23.8462 6.04545 23.7308 5.98864L23.3846 5.875C23.2692 5.81818 23.0962 5.76136 23.0385 5.70455C22.9231 5.64773 22.9231 5.53409 22.9231 5.42045C22.9231 5.30682 22.9808 5.19318 23.0385 5.13636C23.3846 4.85227 23.9615 5.02273 24.0192 5.02273C24.0769 5.02273 24.1346 5.07955 24.1923 5.07955C24.25 5.07955 24.3077 5.13636 24.3654 5.13636C24.4231 5.13636 24.4231 5.19318 24.4808 5.19318C24.5385 5.19318 24.5962 5.19318 24.6538 5.13636C24.7115 5.07955 24.7115 5.07955 24.7692 5.02273C24.7692 4.96591 24.8269 4.90909 24.8269 4.90909C24.8269 4.85227 24.8269 4.79546 24.8269 4.79546C24.8269 4.68182 24.7692 4.625 24.7115 4.56818C24.6538 4.51136 24.5385 4.45455 24.4231 4.39773C24.3077 4.34091 24.1923 4.34091 24.0769 4.34091C23.9615 4.34091 23.8462 4.34091 23.7308 4.34091V4.17046C23.7308 4.11364 23.7308 4.11364 23.6731 4.05682C23.6154 4 23.5577 4 23.5 4C23.4423 4 23.3846 4 23.3269 4.05682C23.2692 4.11364 23.2692 4.11364 23.2692 4.17046V4.34091C23.0962 4.34091 22.9808 4.39773 22.8077 4.45455C22.6923 4.51136 22.5192 4.56818 22.4038 4.68182C22.2885 4.79545 22.2308 4.90909 22.1154 5.02273C22.0577 5.13636 22 5.30682 22 5.53409C22 5.70455 22.0577 5.875 22.1154 6.04545C22.1731 6.15909 22.2885 6.27273 22.4038 6.38636C22.5192 6.5 22.6346 6.55682 22.8077 6.61364C22.9231 6.67045 23.0962 6.72727 23.2115 6.78409L23.5577 6.95455C23.6731 7.01136 23.7885 7.06818 23.9038 7.18182C24.0192 7.23864 24.0192 7.40909 24.0192 7.52273C24.0192 7.63636 23.9615 7.75 23.9038 7.86364C23.8462 7.92045 23.7308 7.97727 23.5577 8.03409C23.4423 8.09091 23.0962 8.09091 22.8654 7.92045C22.75 7.86364 22.6923 7.80682 22.6346 7.75C22.5769 7.69318 22.5192 7.63636 22.4615 7.57955C22.4038 7.52273 22.3462 7.52273 22.2885 7.52273C22.2308 7.52273 22.1731 7.52273 22.1731 7.57955C22.1154 7.57955 22.1154 7.63636 22.0577 7.69318C22 7.75 22 7.80682 22 7.80682C22 7.86364 22 7.92045 22 7.92045C22 7.97727 22.0577 8.09091 22.1154 8.20455C22.1731 8.31818 22.2885 8.375 22.4038 8.43182C22.5192 8.48864 22.6346 8.54545 22.8077 8.60227C22.9808 8.65909 23.1538 8.65909 23.3269 8.65909V8.82955C23.3269 8.88636 23.3269 8.88636 23.3846 8.94318C23.4423 9 23.5 9 23.5577 9C23.6154 9 23.6731 9 23.7308 8.94318C23.7885 8.88636 23.7885 8.88636 23.7885 8.82955V8.65909C24.1346 8.60227 24.4231 8.48864 24.6538 8.26136C24.8846 8.03409 25 7.75 25 7.35227C24.9423 7.06818 24.8846 6.89773 24.8269 6.72727Z" fill="#EDEDED"/>
<path opacity="0.1" d="M3 12.5878V15.2635H4.9422V18H24V0L3 12.5878Z" fill="#1D1D1B"/>
<path opacity="0.1" d="M11 18H7V19.5038H7.84848C7.06061 26.4812 7.06061 33.5188 7.84848 40.4962H7V42H11V18Z" fill="#1D1D1B"/>
<path opacity="0.1" d="M24 18H20V19.5038H20.8485C20.0606 26.4812 20.0606 33.5188 20.8485 40.4962H20V42H24V18Z" fill="#1D1D1B"/>
<path opacity="0.1" d="M37 18H33V19.5038H33.8485C33.0606 26.4812 33.0606 33.5188 33.8485 40.4962H33V42H37V18Z" fill="#1D1D1B"/>
<path opacity="0.1" d="M24 42H2.61929V43.156V44.3119H1.40101V45.4679V46.6239H0V47.7798V49H24V42Z" fill="#1D1D1B"/>
</svg>
