<svg width="18" height="19" viewBox="0 0 18 19" fill="none" xmlns="http://www.w3.org/2000/svg">
<path d="M9 0.5C4.02571 0.5 0 4.52525 0 9.5C0 14.4742 4.02525 18.5 9 18.5C13.9743 18.5 18 14.4747 18 9.5C18 4.52571 13.9747 0.5 9 0.5ZM9 17.2442C4.72985 17.2442 1.25582 13.7702 1.25582 9.5C1.25582 5.22982 4.72985 1.75582 9 1.75582C13.2702 1.75582 16.7442 5.22982 16.7442 9.5C16.7442 13.7702 13.2702 17.2442 9 17.2442Z" fill="#333333"/>
<path d="M8.99348 11.5C8.44445 11.5 8 11.9545 8 12.5C8 13.0325 8.43138 13.5 8.99348 13.5C9.55559 13.5 10 13.0325 10 12.5C10 11.9545 9.54248 11.5 8.99348 11.5Z" fill="#333333"/>
<path d="M9.40247 4.5C7.75609 4.5 7 5.43389 7 6.06422C7 6.51948 7.40244 6.72961 7.7317 6.72961C8.39026 6.72961 8.12198 5.83074 9.36588 5.83074C9.97561 5.83074 10.4635 6.08757 10.4635 6.62455C10.4635 7.25488 9.78051 7.61674 9.37807 7.94358C9.02438 8.23536 8.561 8.714 8.561 9.71791C8.561 10.3249 8.73175 10.5 9.23172 10.5C9.82926 10.5 9.95122 10.2432 9.95122 10.0214C9.95122 9.41438 9.96342 9.06419 10.6342 8.56224C10.9634 8.31712 12 7.52331 12 6.42605C12 5.32879 10.9634 4.5 9.40247 4.5Z" fill="#333333"/>
</svg>
