<svg width="16" height="16" viewBox="0 0 16 16" fill="none" xmlns="http://www.w3.org/2000/svg">
<path d="M8 0.5C6.51664 0.5 5.0666 0.939867 3.83323 1.76398C2.59986 2.58809 1.63856 3.75943 1.07091 5.12987C0.50325 6.50032 0.354725 8.00832 0.644114 9.46318C0.933503 10.918 1.64781 12.2544 2.6967 13.3033C3.7456 14.3522 5.08197 15.0665 6.53683 15.3559C7.99168 15.6453 9.49968 15.4968 10.8701 14.9291C12.2406 14.3614 13.4119 13.4001 14.236 12.1668C15.0601 10.9334 15.5 9.48336 15.5 8C15.5 7.01509 15.306 6.03982 14.9291 5.12987C14.5522 4.21993 13.9997 3.39314 13.3033 2.6967C12.6069 2.00026 11.7801 1.44781 10.8701 1.0709C9.96019 0.693993 8.98492 0.5 8 0.5V0.5ZM8 14C6.81332 14 5.65328 13.6481 4.66658 12.9888C3.67989 12.3295 2.91085 11.3925 2.45673 10.2961C2.0026 9.19974 1.88378 7.99334 2.11529 6.82946C2.3468 5.66557 2.91825 4.59647 3.75736 3.75736C4.59648 2.91824 5.66558 2.3468 6.82946 2.11529C7.99335 1.88378 9.19975 2.0026 10.2961 2.45672C11.3925 2.91085 12.3295 3.67988 12.9888 4.66658C13.6481 5.65327 14 6.81331 14 8C14 9.5913 13.3679 11.1174 12.2426 12.2426C11.1174 13.3679 9.5913 14 8 14V14Z" fill="#111111"/>
<path d="M8 3.49999C7.30381 3.49999 6.63613 3.77655 6.14384 4.26883C5.65156 4.76112 5.375 5.4288 5.375 6.12499C5.375 6.3239 5.45402 6.51467 5.59467 6.65532C5.73532 6.79597 5.92609 6.87499 6.125 6.87499C6.32391 6.87499 6.51468 6.79597 6.65533 6.65532C6.79598 6.51467 6.875 6.3239 6.875 6.12499C6.875 5.90249 6.94098 5.68498 7.0646 5.49997C7.18821 5.31497 7.36391 5.17077 7.56948 5.08562C7.77505 5.00048 8.00125 4.9782 8.21948 5.02161C8.43771 5.06501 8.63816 5.17216 8.7955 5.32949C8.95283 5.48683 9.05998 5.68728 9.10338 5.90551C9.14679 6.12374 9.12451 6.34994 9.03936 6.55551C8.95422 6.76108 8.81002 6.93678 8.62502 7.06039C8.44001 7.18401 8.2225 7.24999 8 7.24999C7.80109 7.24999 7.61032 7.32901 7.46967 7.46966C7.32902 7.61031 7.25 7.80108 7.25 7.99999V9.49999C7.25 9.6989 7.32902 9.88967 7.46967 10.0303C7.61032 10.171 7.80109 10.25 8 10.25C8.19891 10.25 8.38968 10.171 8.53033 10.0303C8.67098 9.88967 8.75 9.6989 8.75 9.49999V8.62999C9.35608 8.45299 9.87775 8.06289 10.2189 7.53157C10.56 7.00025 10.6976 6.36354 10.6062 5.73879C10.5149 5.11404 10.2008 4.54336 9.72184 4.13193C9.2429 3.72051 8.63138 3.49607 8 3.49999V3.49999Z" fill="#111111"/>
<path d="M8 12.5C8.41421 12.5 8.75 12.1642 8.75 11.75C8.75 11.3358 8.41421 11 8 11C7.58579 11 7.25 11.3358 7.25 11.75C7.25 12.1642 7.58579 12.5 8 12.5Z" fill="#111111"/>
</svg>
