<svg width="26" height="26" viewBox="0 0 26 26" fill="none" xmlns="http://www.w3.org/2000/svg">
<path d="M16 20C16.5522 20 17 19.6268 17 19.1667V10.8333C17 10.3732 16.5522 10 16 10C15.4478 10 15 10.3732 15 10.8333V19.1667C15 19.6268 15.4478 20 16 20Z" fill="#007BC9"/>
<path d="M11 20C11.5522 20 12 19.6268 12 19.1667V10.8333C12 10.3732 11.5522 10 11 10C10.4478 10 10 10.3732 10 10.8333V19.1667C10 19.6268 10.4478 20 11 20Z" fill="#007BC9"/>
<path d="M17.1 4C17.597 4 18 3.5522 18 3C18 2.4478 17.597 2 17.1 2H9.9C9.40302 2 9 2.4478 9 3C9 3.5522 9.40302 4 9.9 4H17.1Z" fill="#007BC9"/>
<path d="M3.83333 4C3.37317 4 3 4.38383 3 4.85714C3 5.33046 3.37317 5.71429 3.83333 5.71429H4.66667V21.4857C4.66667 23.4228 6.2 25 8.08333 25H17.9167C19.7999 25 21.3333 23.4229 21.3333 21.4857V5.71429H22.1667C22.6268 5.71429 23 5.33046 23 4.85714C23 4.38383 22.6268 4 22.1667 4H20.5H5.5H3.83333ZM19.6667 5.71429V21.4857C19.6667 22.48 18.8833 23.2857 17.9167 23.2857H8.08333C7.11667 23.2857 6.33333 22.48 6.33333 21.4857V5.71429H19.6667Z" fill="#007BC9"/>
</svg>
