<svg width="26" height="26" viewBox="0 0 26 26" fill="none" xmlns="http://www.w3.org/2000/svg">
<path d="M21.0554 24H4.94462C4.16366 24 3.41468 23.6898 2.86246 23.1375C2.31024 22.5853 2 21.8363 2 21.0554V4.94462C2 4.16366 2.31024 3.41468 2.86246 2.86246C3.41468 2.31024 4.16366 2 4.94462 2H21.0554C21.8363 2 22.5853 2.31024 23.1375 2.86246C23.6898 3.41468 24 4.16366 24 4.94462V21.0554C24 21.8363 23.6898 22.5853 23.1375 23.1375C22.5853 23.6898 21.8363 24 21.0554 24ZM4.94462 3.69231C4.61248 3.69231 4.29395 3.82425 4.0591 4.0591C3.82425 4.29395 3.69231 4.61248 3.69231 4.94462V21.0554C3.69231 21.3875 3.82425 21.706 4.0591 21.9409C4.29395 22.1758 4.61248 22.3077 4.94462 22.3077H21.0554C21.3875 22.3077 21.706 22.1758 21.9409 21.9409C22.1758 21.706 22.3077 21.3875 22.3077 21.0554V4.94462C22.3077 4.61248 22.1758 4.29395 21.9409 4.0591C21.706 3.82425 21.3875 3.69231 21.0554 3.69231H4.94462Z" fill="#5DB139"/>
<path d="M2.84396 20.9998C2.72209 20.9994 2.60171 20.9727 2.49083 20.9213C2.37996 20.87 2.28114 20.7952 2.20096 20.702C2.1288 20.6157 2.07416 20.5157 2.0402 20.4079C2.00623 20.3 1.9936 20.1864 2.00303 20.0736C2.01247 19.9607 2.04378 19.8509 2.09517 19.7504C2.14657 19.6499 2.21702 19.5607 2.30249 19.488L8.07817 14.5402C8.50939 14.1706 9.06135 13.9786 9.62518 14.0019C10.189 14.0252 10.7237 14.2622 11.1239 14.6661L13.8651 17.4493C13.9673 17.538 14.0973 17.5868 14.2317 17.5868C14.3662 17.5868 14.4962 17.538 14.5984 17.4493L17.2606 15.4908C17.6551 15.1824 18.139 15.0152 18.6368 15.0152C19.1347 15.0152 19.6186 15.1824 20.0131 15.4908L23.6793 18.4572C23.7667 18.5279 23.8395 18.6154 23.8936 18.7146C23.9477 18.8139 23.982 18.923 23.9946 19.0357C24.0072 19.1485 23.9977 19.2626 23.9669 19.3717C23.936 19.4807 23.8843 19.5825 23.8146 19.6712C23.745 19.76 23.6589 19.8339 23.5611 19.8889C23.4633 19.9438 23.3558 19.9786 23.2448 19.9914C23.1338 20.0042 23.0213 19.9946 22.9139 19.9632C22.8066 19.9319 22.7063 19.8794 22.6189 19.8087L18.964 16.8308C18.8653 16.7537 18.7444 16.7119 18.6199 16.7119C18.4954 16.7119 18.3745 16.7537 18.2759 16.8308L15.6136 18.9268C15.1803 19.2571 14.6443 19.4181 14.1037 19.3803C13.5631 19.3424 13.0539 19.1082 12.6694 18.7206L9.92819 15.8802C9.82455 15.7852 9.6899 15.7326 9.55029 15.7326C9.41068 15.7326 9.27603 15.7852 9.17239 15.8802L3.38543 20.8051C3.23432 20.9348 3.04178 21.004 2.84396 20.9998Z" fill="#5DB139"/>
<path d="M15.5 13C15.0055 13 14.5222 12.7947 14.1111 12.4101C13.7 12.0256 13.3795 11.4789 13.1903 10.8394C13.0011 10.1999 12.9516 9.49612 13.048 8.81718C13.1445 8.13825 13.3826 7.51461 13.7322 7.02513C14.0819 6.53564 14.5273 6.2023 15.0123 6.06725C15.4972 5.9322 15.9999 6.00152 16.4567 6.26642C16.9135 6.53133 17.304 6.97993 17.5787 7.55551C17.8534 8.13108 18 8.80777 18 9.5C18 10.4283 17.7366 11.3185 17.2678 11.9749C16.7989 12.6313 16.163 13 15.5 13ZM15.5 7.90909C15.2752 7.90909 15.0555 8.0024 14.8687 8.17721C14.6818 8.35202 14.5361 8.60049 14.4501 8.89119C14.3641 9.18189 14.3416 9.50177 14.3855 9.81037C14.4293 10.119 14.5375 10.4025 14.6965 10.6249C14.8554 10.8474 15.0579 10.999 15.2783 11.0603C15.4987 11.1217 15.7272 11.0902 15.9349 10.9698C16.1425 10.8494 16.32 10.6455 16.4449 10.3839C16.5697 10.1222 16.6364 9.81465 16.6364 9.5C16.6364 9.07807 16.5166 8.67341 16.3035 8.37506C16.0904 8.0767 15.8014 7.90909 15.5 7.90909Z" fill="#5DB139"/>
</svg>
