<svg width="201" height="33" viewBox="0 0 201 33" fill="none" xmlns="http://www.w3.org/2000/svg">
<path fill-rule="evenodd" clip-rule="evenodd" d="M63 10.4582H75.2107V14.0368H71.076V25.651H67.1347V14.0368H63V10.4582ZM137.113 12.4946L138.946 15.1838C140.68 14.0273 142.706 13.5468 144.125 13.7766C146.117 14.0999 145.791 16.0635 144.289 16.1689C142.598 16.2875 140.115 16.2494 140.115 16.2494V19.6907C140.115 19.6907 141.566 19.6504 143.945 19.6907C146.323 19.7313 146.646 22.085 143.904 22.2858C141.163 22.4863 138.906 20.7082 138.906 20.7082L136.93 23.5606C136.93 23.5606 139.188 25.8505 143.461 25.8904C151.023 25.9614 151.652 19.0217 146.888 17.6953C146.888 17.6953 149.66 16.8056 149.509 14.1605C149.347 11.3347 146.377 10.0655 143.43 10.1288C141.015 10.1806 138.717 11.1243 137.113 12.4946ZM167.237 25.6319V10.4582H171.178V19.3138L176.827 10.4582H177.315H180.768H181.256V25.6319H177.315V15.9737L171.268 25.6319H171.178H169.893H167.237ZM171.039 6H177.563V8.96818H171.039V6ZM76.2073 10.4582L81.5347 21.2993C80.5942 22.3851 79.0357 22.5278 77.7388 21.4704L76.0898 24.497C79.3115 27.0907 83.6734 26.284 85.5111 22.4133L91.3864 10.4582H86.9707L83.7779 17.4143L80.623 10.4582H76.2073ZM183.627 25.6319V10.4582H185.376H187.57H189.14L192.313 18.8919L195.489 10.4582H197.059H199.251H201V25.6319H197.059V15.8911L193.126 25.6319H192.639H191.988H191.501L187.57 15.8911V25.6319H183.627ZM149.862 25.6319L155.736 10.4582H156.571H159.648H160.484L166.358 25.6319H161.942L161.138 23.3538H155.083L154.276 25.6319H149.862ZM159.869 19.7751L158.111 14.8038L156.349 19.7751H159.869ZM128.507 10.1088C133.018 10.1088 136.675 13.6623 136.675 18.0444C136.675 22.4278 133.018 25.9815 128.507 25.9815C123.996 25.9815 120.339 22.4278 120.339 18.0444C120.339 13.6623 123.996 10.1088 128.507 10.1088ZM128.507 13.7476C126.183 13.7476 124.299 15.6723 124.299 18.0444C124.299 20.418 126.183 22.3421 128.507 22.3421C130.831 22.3421 132.715 20.418 132.715 18.0444C132.715 15.6723 130.831 13.7476 128.507 13.7476ZM106.699 10.4582V25.6319H108.121H110.641H114.664C117.427 25.6319 119.667 23.3828 119.667 20.6087C119.667 17.835 117.427 15.5864 114.664 15.5864H110.641V14.0368H118.312V10.4582H110.641H107.954H106.699ZM110.641 22.2864V18.9318H114.003C114.926 18.9318 115.673 19.6827 115.673 20.6087C115.673 21.5352 114.926 22.2864 114.003 22.2864H110.641ZM92.1904 25.6319V10.4582H93.6122H96.132H100.155C102.918 10.4582 105.158 12.7071 105.158 15.4811C105.158 18.2552 102.918 20.5037 100.155 20.5037H96.132V25.6319H92.1904ZM96.132 13.8037V17.1582H99.4941C100.417 17.1582 101.164 16.4072 101.164 15.4811C101.164 14.5547 100.417 13.8037 99.4941 13.8037H96.132Z" fill="#0D5190"/>
<path fill-rule="evenodd" clip-rule="evenodd" d="M4.05346 0H45.9462C47.0598 0 48.073 0.448033 48.8075 1.16948L48.8096 1.17169C49.5438 1.89333 50 2.88848 50 3.9831V29.0167C50 30.11 49.5441 31.1056 48.8096 31.8282L48.8086 31.8292L48.8071 31.8303C48.0719 32.5522 47.0587 33 45.9462 33H4.05346C2.93853 33 1.92493 32.5522 1.1904 31.8303C0.456275 31.1089 0 30.1128 0 29.0167V3.9831C0 2.88888 0.456275 1.89333 1.1904 1.17169V1.16948C1.92462 0.448033 2.93853 0 4.05346 0ZM45.9462 1.16546H4.05346C3.26576 1.16546 2.54892 1.48277 2.02882 1.99351L2.0278 1.9923C1.50853 2.50304 1.18622 3.2082 1.18622 3.9831V29.0167C1.18622 29.7909 1.50924 30.4957 2.02882 31.0063C2.54892 31.5173 3.26576 31.8344 4.05346 31.8344H45.9462C46.7357 31.8344 47.4522 31.518 47.9709 31.0085L47.9733 31.0063C48.4919 30.4969 48.8139 29.7926 48.8139 29.0167V3.9831C48.8139 3.208 48.4916 2.50304 47.9722 1.9923C47.4522 1.48217 46.735 1.16546 45.9462 1.16546Z" fill="#0D5190"/>
<path fill-rule="evenodd" clip-rule="evenodd" d="M9.12782 17H39.8718C42.1423 17 44 18.7999 44 20.9999V21C44 23.2002 42.1423 25 39.8718 25H9.12782C6.85765 25 5 23.2002 5 21V20.9999C5 18.7999 6.85765 17 9.12782 17Z" fill="url(#paint0_linear_130_69705)"/>
<path fill-rule="evenodd" clip-rule="evenodd" d="M9.69639 19H33.3033C34.7864 19 36 20.1249 36 21.5C36 22.8751 34.7864 24 33.3033 24H9.69639C8.21318 24 7 22.8751 7 21.5C7 20.1249 8.21318 19 9.69639 19Z" fill="url(#paint1_linear_130_69705)"/>
<path fill-rule="evenodd" clip-rule="evenodd" d="M9.10434 19H32.8957C33.5032 19 34 19.4501 34 20.0001C34 20.5501 33.5032 21 32.8957 21H9.10434C8.4968 21 8 20.5501 8 20.0001C8 19.4501 8.4968 19 9.10434 19Z" fill="url(#paint2_linear_130_69705)"/>
<defs>
<linearGradient id="paint0_linear_130_69705" x1="24.7873" y1="28.9717" x2="25.1046" y2="38.3497" gradientUnits="userSpaceOnUse">
<stop stop-color="#0D5190"/>
<stop offset="1" stop-color="#00A0E3"/>
</linearGradient>
<linearGradient id="paint1_linear_130_69705" x1="21.4999" y1="8.05611" x2="21.4999" y2="13.0562" gradientUnits="userSpaceOnUse">
<stop stop-color="#B0CB1F"/>
<stop offset="1" stop-color="#009846"/>
</linearGradient>
<linearGradient id="paint2_linear_130_69705" x1="21" y1="8.23048" x2="21" y2="10.2304" gradientUnits="userSpaceOnUse">
<stop stop-color="#FEFEFE"/>
<stop offset="1" stop-color="#5DB139"/>
</linearGradient>
</defs>
</svg>
