<svg width="82" height="24" viewBox="0 0 82 24" fill="none" xmlns="http://www.w3.org/2000/svg">
<rect width="35" height="24" rx="3" fill="#F03024" fill-opacity="0.01"/>
<rect x="15" y="3" width="18" height="19" rx="9" fill="#F79E1B"/>
<rect x="1" y="3" width="18" height="19" rx="9" fill="#EB001B"/>
<mask id="mask0_494_14164" style="mask-type:alpha" maskUnits="userSpaceOnUse" x="1" y="3" width="18" height="19">
<rect x="1" y="3" width="18" height="19" rx="9" fill="white"/>
</mask>
<g mask="url(#mask0_494_14164)">
<rect x="15" y="3" width="18" height="19" rx="9" fill="#FF5F00"/>
</g>
<path fill-rule="evenodd" clip-rule="evenodd" d="M59 19L60.9242 8H64L62.076 19H59Z" fill="#007BC9"/>
<path fill-rule="evenodd" clip-rule="evenodd" d="M72 7.48775C71.4728 7.25444 70.6438 7 69.6109 7C66.9751 7 65.1196 8.5776 65.1042 10.8366C65.0874 12.5076 66.4282 13.4395 67.4391 13.9949C68.478 14.5642 68.827 14.9285 68.8229 15.4375C68.8157 16.2161 67.9937 16.5729 67.2271 16.5729C66.1597 16.5729 65.5926 16.3973 64.7158 15.9632L64.3728 15.7782L64 18.3804C64.6217 18.7042 65.7742 18.9852 66.9703 19C69.7717 19 71.5919 17.4415 71.6133 15.0292C71.6229 13.7041 70.9124 12.6997 69.3738 11.8705C68.4421 11.3314 67.8703 10.9743 67.8769 10.4287C67.8775 9.94557 68.36 9.42829 69.4042 9.42829C70.2763 9.4125 70.9076 9.63878 71.3995 9.87501L71.6389 10.0079L72 7.48775Z" fill="#007BC9"/>
<path fill-rule="evenodd" clip-rule="evenodd" d="M76 15C76.1997 14.3868 76.9597 12.0178 76.9597 12.0178C76.9456 12.046 77.1583 11.3999 77.2799 11L77.4425 11.9202C77.4425 11.9202 77.9048 14.4667 78 15C77.625 15 76.4704 15 76 15ZM79.7465 8H77.5946C76.9271 8 76.4276 8.19474 76.1352 8.91244L72 19H74.9246C74.9246 19 75.4018 17.6429 75.51 17.3451C75.829 17.3451 78.6709 17.3508 79.0765 17.3508C79.16 17.735 79.4156 19 79.4156 19H82L79.7465 8Z" fill="#007BC9"/>
<path fill-rule="evenodd" clip-rule="evenodd" d="M56.9968 8L54.2229 15.5122L53.9258 13.9852C53.4089 12.2258 51.7998 10.3187 50 9.36318L52.5377 19L55.537 18.9982L60 8H56.9968Z" fill="#007BC9"/>
<path fill-rule="evenodd" clip-rule="evenodd" d="M51.6843 8H47.0382L47 8.22859C50.6152 9.14245 53.0071 11.3483 54 14L52.9903 8.93081C52.8162 8.23168 52.31 8.02444 51.6843 8Z" fill="#EC982D"/>
</svg>
