<svg width="15" height="16" viewBox="0 0 15 16" fill="none" xmlns="http://www.w3.org/2000/svg">
<path d="M13.0664 1.25H11.7187V0.5C11.7187 0.223875 11.5089 0 11.25 0C10.9911 0 10.7812 0.223875 10.7812 0.5V1.25H4.21874V0.5C4.21874 0.223875 4.00889 0 3.74999 0C3.4911 0 3.28124 0.223875 3.28124 0.5V1.25H1.93359C0.867391 1.25 0 2.17522 0 3.3125V13.9375C0 15.0748 0.867391 16 1.93359 16H13.0664C14.1326 16 15 15.0748 15 13.9375V3.3125C15 2.17522 14.1326 1.25 13.0664 1.25ZM1.93359 2.25H3.28124V2.75C3.28124 3.02612 3.4911 3.25 3.74999 3.25C4.00889 3.25 4.21874 3.02612 4.21874 2.75V2.25H10.7812V2.75C10.7812 3.02612 10.9911 3.25 11.25 3.25C11.5089 3.25 11.7187 3.02612 11.7187 2.75V2.25H13.0664C13.6156 2.25 14.0625 2.72662 14.0625 3.3125V4.5H0.937498V3.3125C0.937498 2.72662 1.38433 2.25 1.93359 2.25ZM13.0664 15H1.93359C1.38433 15 0.937498 14.5234 0.937498 13.9375V5.5H14.0625V13.9375C14.0625 14.5234 13.6156 15 13.0664 15Z" fill="white"/>
</svg>
