<svg width="12" height="12" viewBox="0 0 12 12" fill="none" xmlns="http://www.w3.org/2000/svg">
<path d="M10.5 8C10.3674 8 10.2402 8.0602 10.1464 8.16737C10.0527 8.27453 10 8.41988 10 8.57143V10.8571H1V8.57143C1 8.41988 0.947322 8.27453 0.853553 8.16737C0.759785 8.0602 0.632608 8 0.5 8C0.367392 8 0.240215 8.0602 0.146447 8.16737C0.0526784 8.27453 0 8.41988 0 8.57143V11.4286C0 11.5801 0.0526784 11.7255 0.146447 11.8326C0.240215 11.9398 0.367392 12 0.5 12H10.5C10.6326 12 10.7598 11.9398 10.8536 11.8326C10.9473 11.7255 11 11.5801 11 11.4286V8.57143C11 8.41988 10.9473 8.27453 10.8536 8.16737C10.7598 8.0602 10.6326 8 10.5 8Z" fill="#007BC9"/>
<path d="M5.14588 7.86222C5.23981 7.95044 5.36718 8 5.5 8C5.63281 8 5.76019 7.95044 5.85412 7.86222L8.8594 5.03865C8.95064 4.9499 9.00112 4.83102 8.99998 4.70763C8.99884 4.58425 8.94616 4.46622 8.8533 4.37896C8.76043 4.29171 8.6348 4.24222 8.50347 4.24115C8.37214 4.24008 8.24562 4.28751 8.15115 4.37323L6.00088 6.39349V0.470594C6.00088 0.345785 5.94811 0.226087 5.85417 0.137834C5.76024 0.0495803 5.63284 0 5.5 0C5.36716 0 5.23976 0.0495803 5.14582 0.137834C5.05189 0.226087 4.99912 0.345785 4.99912 0.470594V6.39349L2.84885 4.37323C2.75438 4.28751 2.62786 4.24008 2.49653 4.24115C2.3652 4.24222 2.23957 4.29171 2.1467 4.37896C2.05384 4.46622 2.00116 4.58425 2.00002 4.70763C1.99888 4.83102 2.04936 4.9499 2.1406 5.03865L5.14588 7.86222Z" fill="#007BC9"/>
</svg>
