<svg width="22" height="22" viewBox="0 0 22 22" fill="none" xmlns="http://www.w3.org/2000/svg">
<path d="M14.2971 12L12.4309 13.8972C11.6741 14.6667 10.3425 14.6833 9.56932 13.8972L7.70299 12L1 18.8133C1.24951 18.9302 1.52461 19 1.81707 19H20.1831C20.4756 19 20.7506 18.9303 21 18.8134L14.2971 12Z" fill="#007BC9"/>
<path d="M20.1831 3H1.81699C1.52452 3 1.24942 3.06958 1 3.18618L8.16265 10.4488C8.16313 10.4493 8.1637 10.4494 8.16418 10.4499C8.16466 10.4504 8.16474 10.451 8.16474 10.451L10.4937 12.8125C10.7411 13.0625 11.2591 13.0625 11.5065 12.8125L13.835 10.4514C13.835 10.4514 13.8355 10.4504 13.836 10.4499C13.836 10.4499 13.837 10.4493 13.8375 10.4488L21 3.18614C20.7506 3.06949 20.4756 3 20.1831 3Z" fill="#007BC9"/>
<path d="M0.210614 4C0.0800915 4.25187 0 4.53146 0 4.83096V16.169C0 16.4685 0.0800035 16.7481 0.21057 17L7 10.5002L0.210614 4Z" fill="#007BC9"/>
<path d="M21.7894 4L15 10.5002L21.7894 17C21.9199 16.7481 22 16.4685 22 16.169V4.83103C22 4.53146 21.9199 4.25187 21.7894 4Z" fill="#007BC9"/>
</svg>
