<svg width="21" height="21" viewBox="0 0 21 21" fill="none" xmlns="http://www.w3.org/2000/svg">
<path d="M13.6322 11L11.8593 12.8972C11.1404 13.6667 9.87535 13.6833 9.14085 12.8972L7.36784 11L1 17.8133C1.23703 17.9302 1.49838 18 1.77622 18H19.2239C19.5018 18 19.7631 17.9303 20 17.8134L13.6322 11Z" fill="white"/>
<path d="M19.2239 3H1.77614C1.4983 3 1.23695 3.06262 1 3.16756L7.80452 9.70395C7.80498 9.70439 7.80551 9.70447 7.80597 9.7049C7.80642 9.70534 7.80651 9.70593 7.80651 9.70593L10.019 11.8312C10.254 12.0563 10.7461 12.0563 10.9811 11.8312L13.1932 9.70629C13.1932 9.70629 13.1937 9.70534 13.1942 9.7049C13.1942 9.7049 13.1952 9.70439 13.1956 9.70395L20 3.16752C19.763 3.06254 19.5018 3 19.2239 3Z" fill="white"/>
<path d="M0.210614 4C0.0800915 4.25187 0 4.53146 0 4.83096V16.169C0 16.4685 0.0800035 16.7481 0.21057 17L7 10.5002L0.210614 4Z" fill="white"/>
<path d="M20.7894 4L14 10.5002L20.7894 17C20.9199 16.7481 21 16.4685 21 16.169V4.83103C21 4.53146 20.9199 4.25187 20.7894 4Z" fill="white"/>
</svg>
