<svg width="42" height="43" viewBox="0 0 42 43" fill="none" xmlns="http://www.w3.org/2000/svg">
<path d="M12.8704 15.6133H5.90918V16.9317H12.8704V15.6133Z" fill="#C6C6C6"/>
<path d="M12.8704 35.3359H5.90918V36.6543H12.8704V35.3359Z" fill="#C6C6C6"/>
<path d="M9.44352 38.1845C11.8027 38.1845 13.7152 32.7776 13.7152 26.1079C13.7152 19.4381 11.8027 14.0312 9.44352 14.0312C7.08435 14.0312 5.17188 19.4381 5.17188 26.1079C5.17188 32.7776 7.08435 38.1845 9.44352 38.1845Z" fill="#EDEDED"/>
<path d="M24.2063 15.6133H17.2451V16.9317H24.2063V15.6133Z" fill="#C6C6C6"/>
<path d="M24.2063 35.3359H17.2451V36.6543H24.2063V35.3359Z" fill="#C6C6C6"/>
<path d="M20.7795 38.1845C23.1386 38.1845 25.0511 32.7776 25.0511 26.1079C25.0511 19.4381 23.1386 14.0312 20.7795 14.0312C18.4203 14.0312 16.5078 19.4381 16.5078 26.1079C16.5078 32.7776 18.4203 38.1845 20.7795 38.1845Z" fill="#EDEDED"/>
<path d="M35.5422 15.6133H28.5811V16.9317H35.5422V15.6133Z" fill="#C6C6C6"/>
<path d="M35.5422 35.3359H28.5811V36.6543H35.5422V35.3359Z" fill="#C6C6C6"/>
<path d="M32.1154 38.1845C34.4746 38.1845 36.387 32.7776 36.387 26.1079C36.387 19.4381 34.4746 14.0312 32.1154 14.0312C29.7562 14.0312 27.8438 19.4381 27.8438 26.1079C27.8438 32.7776 29.7562 38.1845 32.1154 38.1845Z" fill="#EDEDED"/>
<path d="M39.185 36.6514H2.26953V38.5499H39.185V36.6514Z" fill="#EDEDED"/>
<path d="M40.2925 38.5498H1.21484V40.4483H40.2925V38.5498Z" fill="#EDEDED"/>
<path d="M41.5562 40.4482H0V42.3467H41.5562V40.4482Z" fill="#EDEDED"/>
<path d="M39.185 37.6006H2.26953V38.5498H39.185V37.6006Z" fill="#C6C6C6"/>
<path d="M40.2925 39.499H1.21484V40.4483H40.2925V39.499Z" fill="#C6C6C6"/>
<path d="M41.5562 41.3975H0V42.3467H41.5562V41.3975Z" fill="#C6C6C6"/>
<path d="M37.3372 13.2373H4.21875V15.6104H37.3372V13.2373Z" fill="#EDEDED"/>
<path d="M38.9193 10.9141H2.53125V13.2345H38.9193V10.9141Z" fill="#C6C6C6"/>
<path d="M2.53418 10.9164L20.7809 0L38.975 10.9164H2.53418Z" fill="#C6C6C6"/>
<path d="M20.7809 2.42587L31.3809 8.80697H10.1282L20.7809 2.42587ZM20.7809 0L2.53418 10.9164H38.9222L20.7809 0Z" fill="#C6C6C6"/>
<path d="M2.53418 10.9164L20.7809 0L38.975 10.9164H2.53418Z" fill="#C6C6C6"/>
<path d="M20.7809 2.42587L31.3809 8.80697H10.1282L20.7809 2.42587ZM20.7809 0L2.53418 10.9164H38.9222L20.7809 0Z" fill="#EDEDED"/>
<path d="M22.2032 6.43564C22.1505 6.33017 22.045 6.17196 21.9395 6.11922C21.8341 6.01375 21.7286 5.96102 21.5704 5.90828C21.4649 5.85554 21.3067 5.80281 21.2012 5.75007L20.9375 5.59186C20.8321 5.53912 20.6739 5.48639 20.6211 5.43365C20.5157 5.38092 20.5157 5.27544 20.5157 5.16997C20.5157 5.0645 20.5684 4.95903 20.6211 4.90629C20.9375 4.64261 21.4649 4.80082 21.5176 4.80082C21.5704 4.80082 21.6231 4.85355 21.6759 4.85355C21.7286 4.85355 21.7813 4.90629 21.8341 4.90629C21.8868 4.90629 21.8868 4.95902 21.9395 4.95902C21.9923 4.95902 22.045 4.95903 22.0977 4.90629C22.1505 4.85355 22.1505 4.85355 22.2032 4.80082C22.2032 4.74808 22.256 4.69534 22.256 4.69534C22.256 4.64261 22.256 4.58987 22.256 4.58987C22.256 4.4844 22.2032 4.43166 22.1505 4.37893C22.0977 4.32619 21.9923 4.27345 21.8868 4.22072C21.7813 4.16798 21.6759 4.16798 21.5704 4.16798C21.4649 4.16798 21.3594 4.16798 21.254 4.16798V4.00977C21.254 3.95703 21.254 3.95703 21.2012 3.9043C21.1485 3.85156 21.0958 3.85156 21.043 3.85156C20.9903 3.85156 20.9375 3.85156 20.8848 3.9043C20.8321 3.95703 20.8321 3.95703 20.8321 4.00977V4.16798C20.6739 4.16798 20.5684 4.22072 20.4102 4.27345C20.3047 4.32619 20.1465 4.37893 20.041 4.4844C19.9356 4.58987 19.8828 4.69534 19.7773 4.80082C19.7246 4.90629 19.6719 5.0645 19.6719 5.27544C19.6719 5.43365 19.7246 5.59186 19.7773 5.75007C19.8301 5.85554 19.9356 5.96101 20.041 6.06649C20.1465 6.17196 20.252 6.2247 20.4102 6.27743C20.5157 6.33017 20.6739 6.38291 20.7793 6.43564L21.0958 6.59385C21.2012 6.64659 21.3067 6.69932 21.4122 6.8048C21.5176 6.85753 21.5176 7.01574 21.5176 7.12121C21.5176 7.22669 21.4649 7.33216 21.4122 7.43763C21.3594 7.49037 21.254 7.5431 21.0958 7.59584C20.9903 7.64858 20.6739 7.64858 20.4629 7.49037C20.3574 7.43763 20.3047 7.3849 20.252 7.33216C20.1992 7.27942 20.1465 7.22669 20.0938 7.17395C20.041 7.12121 19.9883 7.12121 19.9356 7.12121C19.8828 7.12121 19.8301 7.12121 19.8301 7.17395C19.7773 7.17395 19.7773 7.22669 19.7246 7.27942C19.6719 7.33216 19.6719 7.3849 19.6719 7.3849C19.6719 7.43763 19.6719 7.49037 19.6719 7.49037C19.6719 7.5431 19.7246 7.64858 19.7773 7.75405C19.8301 7.85952 19.9356 7.91226 20.041 7.96499C20.1465 8.01773 20.252 8.07047 20.4102 8.1232C20.5684 8.17594 20.7266 8.17594 20.8848 8.17594V8.33415C20.8848 8.38689 20.8848 8.38689 20.9375 8.43962C20.9903 8.49236 21.043 8.49236 21.0958 8.49236C21.1485 8.49236 21.2012 8.49236 21.254 8.43962C21.3067 8.38689 21.3067 8.38689 21.3067 8.33415V8.17594C21.6231 8.1232 21.8868 8.01773 22.0977 7.80679C22.3087 7.59584 22.4142 7.33216 22.4142 6.96301C22.3087 6.69932 22.256 6.54111 22.2032 6.43564Z" fill="#575756"/>
<path d="M21.9942 6.17197C21.9415 6.0665 21.836 5.90829 21.7306 5.85555C21.6251 5.75008 21.5196 5.69734 21.3614 5.64461C21.2559 5.59187 21.0977 5.53913 20.9922 5.4864L20.6758 5.38092C20.5704 5.32819 20.4121 5.27545 20.3594 5.22271C20.2539 5.16998 20.2539 5.06451 20.2539 4.95903C20.2539 4.85356 20.3067 4.74809 20.3594 4.69535C20.6758 4.43167 21.2032 4.58988 21.2559 4.58988C21.3087 4.58988 21.3614 4.64262 21.4141 4.64262C21.4669 4.64262 21.5196 4.69535 21.5723 4.69535C21.6251 4.69535 21.6251 4.74809 21.6778 4.74809C21.7306 4.74809 21.7833 4.74809 21.836 4.69535C21.8888 4.64262 21.8888 4.64262 21.9415 4.58988C21.9415 4.53714 21.9942 4.48441 21.9942 4.48441C21.9942 4.43167 21.9942 4.37893 21.9942 4.37893C21.9942 4.27346 21.9415 4.22072 21.8888 4.16799C21.836 4.11525 21.7306 4.06252 21.6251 4.00978C21.5196 3.95704 21.4141 3.95704 21.3087 3.95704C21.2032 3.95704 21.0977 3.95704 20.9922 3.95704V3.79883C20.9922 3.7461 20.9922 3.7461 20.9395 3.69336C20.8868 3.64063 20.834 3.64062 20.7813 3.64062C20.7286 3.64062 20.6758 3.64063 20.6231 3.69336C20.5704 3.7461 20.5704 3.7461 20.5704 3.79883V3.95704C20.4121 3.95704 20.3067 4.00978 20.1485 4.06252C20.043 4.11525 19.8848 4.16799 19.7793 4.27346C19.6738 4.37893 19.6211 4.48441 19.5156 4.58988C19.4629 4.69535 19.4102 4.85356 19.4102 5.06451C19.4102 5.22271 19.4629 5.38092 19.5156 5.53913C19.5684 5.64461 19.6738 5.75008 19.7793 5.85555C19.8848 5.96102 19.9903 6.01376 20.1485 6.0665C20.2539 6.11923 20.4121 6.17197 20.5176 6.22471L20.834 6.38291C20.9395 6.43565 21.045 6.48839 21.1505 6.59386C21.2559 6.6466 21.2559 6.8048 21.2559 6.91028C21.2559 7.01575 21.2032 7.12122 21.1505 7.2267C21.0977 7.27943 20.9922 7.33217 20.834 7.3849C20.7286 7.43764 20.4121 7.43764 20.2012 7.27943C20.0957 7.2267 20.043 7.17396 19.9903 7.12122C19.9375 7.06849 19.8848 7.01575 19.832 6.96301C19.7793 6.91028 19.7266 6.91028 19.6738 6.91028C19.6211 6.91028 19.5684 6.91028 19.5684 6.96301C19.5156 6.96301 19.5156 7.01575 19.4629 7.06849C19.4102 7.12122 19.4102 7.17396 19.4102 7.17396C19.4102 7.2267 19.4102 7.27943 19.4102 7.27943C19.4102 7.33217 19.4629 7.43764 19.5156 7.54311C19.5684 7.64859 19.6738 7.70132 19.7793 7.75406C19.8848 7.80679 19.9903 7.85953 20.1485 7.91227C20.3067 7.965 20.4649 7.965 20.6231 7.965V8.12321C20.6231 8.17595 20.6231 8.17595 20.6758 8.22869C20.7286 8.28142 20.7813 8.28142 20.834 8.28142C20.8868 8.28142 20.9395 8.28142 20.9922 8.22869C21.045 8.17595 21.045 8.17595 21.045 8.12321V7.965C21.3614 7.91227 21.6251 7.80679 21.836 7.59585C22.047 7.3849 22.1524 7.12122 22.1524 6.75207C22.0997 6.48839 22.047 6.33018 21.9942 6.17197Z" fill="#EDEDED"/>
<path opacity="0.1" d="M2.53174 10.9164V13.2368H4.2193V15.61H20.7785V0L2.53174 10.9164Z" fill="#1D1D1B"/>
<path opacity="0.1" d="M9.44153 15.6094H5.96094V16.9278H6.69925C6.01367 23.0452 6.01367 29.2153 6.69925 35.3328H5.96094V36.6512H9.44153V15.6094Z" fill="#1D1D1B"/>
<path opacity="0.1" d="M20.7775 15.6094H17.2969V16.9278H18.0352C17.3496 23.0452 17.3496 29.2153 18.0352 35.3328H17.2969V36.6512H20.7775V15.6094Z" fill="#1D1D1B"/>
<path opacity="0.1" d="M32.1173 15.6094H28.6367V16.9278H29.375C28.6895 23.0452 28.6895 29.2153 29.375 35.3328H28.6367V36.6512H32.1173V15.6094Z" fill="#1D1D1B"/>
<path opacity="0.1" d="M20.7781 36.6514H2.26766V37.6006V38.5499H1.21293V39.4991V40.4484H0V41.3976V42.3996H20.7781V36.6514Z" fill="#1D1D1B"/>
</svg>
