<svg width="120" height="25" viewBox="0 0 120 25" fill="none" xmlns="http://www.w3.org/2000/svg">
<path fill-rule="evenodd" clip-rule="evenodd" d="M45.4414 10.2399H51.9549V12.1038H49.7495V18.1529H47.6468V12.1038H45.4414V10.2399ZM84.9743 11.3005L85.9517 12.7012C86.877 12.0989 87.9581 11.8486 88.7147 11.9682C89.7773 12.1366 89.6033 13.1594 88.802 13.2142C87.9001 13.276 86.5753 13.2562 86.5753 13.2562V15.0485C86.5753 15.0485 87.3495 15.0276 88.6184 15.0485C89.8874 15.0697 90.0593 16.2956 88.5972 16.4002C87.1345 16.5045 85.9305 15.5785 85.9305 15.5785L84.8764 17.0641C84.8764 17.0641 86.0815 18.2567 88.3604 18.2775C92.394 18.3146 92.7297 14.7001 90.1886 14.0093C90.1886 14.0093 91.6672 13.5459 91.5863 12.1682C91.5001 10.6964 89.9156 10.0354 88.3439 10.0684C87.0552 10.0953 85.8299 10.5868 84.9743 11.3005ZM101.043 18.1429V10.2399H103.145V14.8522L106.158 10.2399H106.419H108.261H108.521V18.1429H106.419V13.1126L103.193 18.1429H103.145H102.46H101.043ZM103.07 7.91797H106.551V9.4639H103.07V7.91797ZM52.4865 10.2399L55.3282 15.8863C54.8265 16.4519 53.9949 16.5262 53.3032 15.9754L52.4237 17.5518C54.1423 18.9027 56.469 18.4825 57.449 16.4666L60.5829 10.2399H58.2274L56.5248 13.8629L54.8419 10.2399H52.4865ZM109.786 18.1429V10.2399H110.718H111.889H112.726L114.419 14.6325L116.113 10.2399H116.95H118.12H119.053V18.1429H116.95V13.0696L114.852 18.1429H114.593H114.245H113.986L111.889 13.0696V18.1429H109.786ZM91.7746 18.1429L94.9085 10.2399H95.3533H96.9947H97.4406L100.574 18.1429H98.2185L97.7891 16.9564H94.5595L94.1296 18.1429H91.7746ZM97.1128 15.0925L96.1748 12.5032L95.2352 15.0925H97.1128ZM80.3837 10.0579C82.7897 10.0579 84.7407 11.9087 84.7407 14.1911C84.7407 16.4741 82.7897 18.325 80.3837 18.325C77.9777 18.325 76.0266 16.4741 76.0266 14.1911C76.0266 11.9087 77.9777 10.0579 80.3837 10.0579ZM80.3837 11.9532C79.144 11.9532 78.1394 12.9556 78.1394 14.1911C78.1394 15.4273 79.144 16.4295 80.3837 16.4295C81.6234 16.4295 82.6285 15.4273 82.6285 14.1911C82.6285 12.9556 81.6234 11.9532 80.3837 11.9532ZM68.7511 10.2399V18.1429H69.5093H70.8533H72.9997C74.4735 18.1429 75.668 16.9715 75.668 15.5267C75.668 14.082 74.4735 12.9108 72.9997 12.9108H70.8533V12.1038H74.9454V10.2399H70.8533H69.4205H68.7511ZM70.8533 16.4005V14.6533H72.6469C73.1391 14.6533 73.5376 15.0444 73.5376 15.5267C73.5376 16.0092 73.1391 16.4005 72.6469 16.4005H70.8533ZM61.0117 18.1429V10.2399H61.7705H63.1145H65.2603C66.7341 10.2399 67.9291 11.4112 67.9291 12.856C67.9291 14.3009 66.7341 15.4719 65.2603 15.4719H63.1145V18.1429H61.0117ZM63.1145 11.9824V13.7295H64.9081C65.4002 13.7295 65.7987 13.3384 65.7987 12.856C65.7987 12.3736 65.4002 11.9824 64.9081 11.9824H63.1145Z" fill="white"/>
<path fill-rule="evenodd" clip-rule="evenodd" d="M3.01839 0H34.2134C35.0425 0 35.797 0.339402 36.3438 0.885918L36.3455 0.887594C36.8924 1.43426 37.2321 2.18813 37.2321 3.01734V21.9812C37.2321 22.8094 36.8924 23.5636 36.3455 24.111L36.3447 24.1117L36.3434 24.1126C35.7962 24.6594 35.0417 24.9987 34.2134 24.9987H3.01839C2.18816 24.9987 1.43338 24.6594 0.886422 24.1126C0.339789 23.5661 0 22.8116 0 21.9812V3.01734C0 2.18843 0.339789 1.43426 0.886422 0.887594V0.885918C1.43318 0.339402 2.18816 0 3.01839 0ZM34.2134 0.882874H3.01839C2.43183 0.882874 1.89804 1.12325 1.51074 1.51015L1.51001 1.50924C1.12332 1.89614 0.883322 2.43033 0.883322 3.01734V21.9812C0.883322 22.5677 1.12385 23.1015 1.51074 23.4884C1.89804 23.8755 2.43183 24.1157 3.01839 24.1157H34.2134C34.8011 24.1157 35.3345 23.876 35.7207 23.49L35.7227 23.4884C36.1089 23.1024 36.3487 22.5689 36.3487 21.9812V3.01734C36.3487 2.43017 36.1085 1.89614 35.7219 1.50924C35.3345 1.1228 34.8007 0.882874 34.2134 0.882874Z" fill="white"/>
<path fill-rule="evenodd" clip-rule="evenodd" d="M7.35211 13.2969H30.4131C32.1163 13.2969 33.5096 14.7329 33.5096 16.4881V16.4882C33.5096 18.2436 32.1163 19.6795 30.4131 19.6795H7.35211C5.64927 19.6795 4.25586 18.2436 4.25586 16.4882V16.4881C4.25586 14.7329 5.64927 13.2969 7.35211 13.2969Z" fill="url(#paint0_linear_130_70170)"/>
<path fill-rule="evenodd" clip-rule="evenodd" d="M7.34794 14.3594H25.0998C26.2151 14.3594 27.1277 15.3167 27.1277 16.4869C27.1277 17.6571 26.2151 18.6145 25.0998 18.6145H7.34794C6.23261 18.6145 5.32031 17.6571 5.32031 16.4869C5.32031 15.3167 6.23261 14.3594 7.34794 14.3594Z" fill="url(#paint1_linear_130_70170)"/>
<path fill-rule="evenodd" clip-rule="evenodd" d="M7.19611 14.8906H24.7174C25.1649 14.8906 25.5307 15.2497 25.5307 15.6885C25.5307 16.1273 25.1649 16.4863 24.7174 16.4863H7.19611C6.74867 16.4863 6.38281 16.1273 6.38281 15.6885C6.38281 15.2497 6.74867 14.8906 7.19611 14.8906Z" fill="url(#paint2_linear_130_70170)"/>
<defs>
<linearGradient id="paint0_linear_130_70170" x1="19.0983" y1="22.8482" x2="19.3675" y2="30.3291" gradientUnits="userSpaceOnUse">
<stop stop-color="#0D5190"/>
<stop offset="1" stop-color="#00A0E3"/>
</linearGradient>
<linearGradient id="paint1_linear_130_70170" x1="16.2239" y1="5.04596" x2="16.2239" y2="9.30106" gradientUnits="userSpaceOnUse">
<stop stop-color="#B0CB1F"/>
<stop offset="1" stop-color="#009846"/>
</linearGradient>
<linearGradient id="paint2_linear_130_70170" x1="15.9568" y1="6.29838" x2="15.9568" y2="7.89404" gradientUnits="userSpaceOnUse">
<stop stop-color="#FEFEFE"/>
<stop offset="1" stop-color="#5DB139"/>
</linearGradient>
</defs>
</svg>
