<svg width="42" height="50" viewBox="0 0 42 50" fill="none" xmlns="http://www.w3.org/2000/svg">
<rect x="1" width="41" height="28" rx="3" fill="#F03024" fill-opacity="0.01"/>
<rect x="18" y="3" width="21" height="22" rx="10.5" fill="#F79E1B"/>
<rect x="2" y="3" width="21" height="22" rx="10.5" fill="#EB001B"/>
<mask id="mask0_633_19196" style="mask-type:alpha" maskUnits="userSpaceOnUse" x="2" y="3" width="21" height="22">
<rect x="2" y="3" width="21" height="22" rx="10.5" fill="white"/>
</mask>
<g mask="url(#mask0_633_19196)">
<rect x="18" y="3" width="21" height="22" rx="10.5" fill="#FF5F00"/>
</g>
<path fill-rule="evenodd" clip-rule="evenodd" d="M14 50L16.3091 37H20L17.6912 50H14Z" fill="#007BC9"/>
<path fill-rule="evenodd" clip-rule="evenodd" d="M29 36.569C28.4069 36.2968 27.4742 36 26.3123 36C23.347 36 21.2595 37.8405 21.2422 40.4761C21.2233 42.4255 22.7317 43.5127 23.869 44.1607C25.0377 44.8249 25.4304 45.2499 25.4258 45.8438C25.4177 46.7522 24.4929 47.1684 23.6305 47.1684C22.4297 47.1684 21.7917 46.9635 20.8053 46.4571L20.4194 46.2412L20 49.2771C20.6994 49.6549 21.996 49.9828 23.3416 50C26.4932 50 28.5409 48.1817 28.5649 45.3673C28.5757 43.8214 27.7765 42.6497 26.0456 41.6822C24.9974 41.0533 24.3541 40.6367 24.3615 40.0001C24.3622 39.4365 24.905 38.833 26.0797 38.833C27.0608 38.8146 27.771 39.0786 28.3244 39.3542L28.5937 39.5092L29 36.569Z" fill="#007BC9"/>
<path fill-rule="evenodd" clip-rule="evenodd" d="M34 46C34.1997 45.2335 34.9597 42.2723 34.9597 42.2723C34.9456 42.3076 35.1583 41.4999 35.2799 41L35.4425 42.1502C35.4425 42.1502 35.9048 45.3333 36 46C35.625 46 34.4704 46 34 46ZM38.2958 37H35.7135C34.9125 37 34.3131 37.2302 33.9622 38.0783L29 50H32.5095C32.5095 50 33.0821 48.3962 33.212 48.0443C33.5949 48.0443 37.005 48.051 37.4918 48.051C37.5919 48.505 37.8987 50 37.8987 50H41L38.2958 37Z" fill="#007BC9"/>
<path fill-rule="evenodd" clip-rule="evenodd" d="M12.3961 37L9.06753 45.8781L8.711 44.0734C8.09071 41.9941 6.15982 39.7403 4 38.611L7.04521 50L10.6444 49.9979L16 37H12.3961Z" fill="#007BC9"/>
<path fill-rule="evenodd" clip-rule="evenodd" d="M5.35347 37H0.043691L0 37.2667C4.13163 38.3329 6.86531 40.9064 8 44L6.8461 38.0859C6.64706 37.2703 6.06853 37.0285 5.35347 37Z" fill="#EC982D"/>
</svg>
